#tb 0: 1/25
0,          0,          0,        1,   149760, 0x8edb27d7
0,          1,          1,        1,   149760, 0x0bdf13f8
0,          2,          2,        1,   149760, 0x45e702c7
0,          3,          3,        1,   149760, 0xcc6428c0
0,          4,          4,        1,   149760, 0xab0ed81d
0,          5,          5,        1,   149760, 0xb518a0ce
0,          6,          6,        1,   149760, 0x038340c0
0,          7,          7,        1,   149760, 0x18ac1285
0,          8,          8,        1,   149760, 0xfe2eb624
0,          9,          9,        1,   149760, 0x3f67dcf5
0,         10,         10,        1,   149760, 0x9a9adbf1
0,         11,         11,        1,   149760, 0x41c67437
0,         12,         12,        1,   149760, 0x8450a1d0
0,         13,         13,        1,   149760, 0xae606230
0,         14,         14,        1,   149760, 0x0525d4ba
0,         15,         15,        1,   149760, 0x860755bc
0,         16,         16,        1,   149760, 0xbf646d22
0,         17,         17,        1,   149760, 0x64c79745
0,         18,         18,        1,   149760, 0xa3cf35a4
0,         19,         19,        1,   149760, 0x23d6f5a2
0,         20,         20,        1,   149760, 0xf2b8ff71
0,         21,         21,        1,   149760, 0xb98ba444
0,         22,         22,        1,   149760, 0xa6c0ffd3
0,         23,         23,        1,   149760, 0x4501ae0d
0,         24,         24,        1,   149760, 0xd8ba65d1
0,         25,         25,        1,   149760, 0x684d982b
0,         26,         26,        1,   149760, 0x1bf223e0
0,         27,         27,        1,   149760, 0xf1fb5950
0,         28,         28,        1,   149760, 0x699f0526
0,         29,         29,        1,   149760, 0x77d4d641
0,         30,         30,        1,   149760, 0x0f2cd844
0,         31,         31,        1,   149760, 0xd99cbe3f
0,         32,         32,        1,   149760, 0xbd342d08
0,         33,         33,        1,   149760, 0x0b993f3c
0,         34,         34,        1,   149760, 0xd89190e2
0,         35,         35,        1,   149760, 0xfae538e6
0,         36,         36,        1,   149760, 0x6994c08f
0,         37,         37,        1,   149760, 0xba181c41
0,         38,         38,        1,   149760, 0x484f4e19
0,         39,         39,        1,   149760, 0xd2d8f91d
0,         40,         40,        1,   149760, 0x1294b154
0,         41,         41,        1,   149760, 0xd98ad86b
0,         42,         42,        1,   149760, 0x3867767d
0,         43,         43,        1,   149760, 0x950d76e0
0,         44,         44,        1,   149760, 0x752cf844
0,         45,         45,        1,   149760, 0xd4a11c1c
0,         46,         46,        1,   149760, 0xf5e6dce6
0,         47,         47,        1,   149760, 0x2c7ff2a6
0,         48,         48,        1,   149760, 0x7a48af63
0,         49,         49,        1,   149760, 0xcb72f57a
